#!OML:ASF E:\Steps\Project 1\Capture day 1\Session 2\Subject.ASF
:FULLY-SPECIFIED
:DEGREES
476
root 3.87228 18.1012 9.128 -152.055 -3.85763 175.878
lowerback -20.5736 -3.95825 -6.71566
upperback 1.94147 -3.69727 0.334349
thorax 14.3183 -2.2614 2.98679
lowerneck 2.13981 1.2104 0.0688711
upperneck 19.5392 2.91552 3.64302
head 5.48098 2.32095 1.31306
rclavicle -2.03754e-015 -1.59028e-014
rhumerus -41.1159 -16.0167 -76.052
rradius 43.0123
rwrist -3.29993
rhand -11.4814 -53.4648
rfingers 7.12502
rthumb 14.5567 -82.9341
lclavicle -2.03754e-015 -1.59028e-014
lhumerus -30.9246 -2.17928 79.1438
lradius 34.2144
lwrist 1.34529
lhand -24.5015 -14.25
lfingers 7.12502
lthumb 1.99307 15.7204
rfemur -32.9648 7.41857 15.8035
rtibia 10.7934
rfoot -14.4365 -2.97454
rtoes -5.00842
lfemur -35.3916 -12.0724 -20.5925
ltibia 13.526
lfoot -2.55193 -3.95301
ltoes -25.6636
477
root 3.87338 18.104 9.10392 -152.08 -3.94285 175.841
lowerback -20.7243 -4.18903 -6.74106
upperback 1.97937 -3.9993 0.453735
thorax 14.4999 -2.40963 3.02551
lowerneck 1.5598 1.3409 -0.193579
upperneck 20.126 3.12199 3.6223
head 5.75601 2.41748 1.38103
rclavicle -3.66261e-014 -1.0138e-014
rhumerus -40.7816 -16.3438 -75.9038
rradius 42.4185
rwrist -3.05399
rhand -11.2547 -53.4929
rfingers 7.12502
rthumb 14.7752 -82.9462
lclavicle -3.66261e-014 -1.0138e-014
lhumerus -30.5581 -1.43713 79.099
lradius 33.5434
lwrist 1.24523
lhand -24.2774 -13.4018
lfingers 7.12502
lthumb 2.2094 16.5665
rfemur -32.8614 7.53806 15.7362
rtibia 10.8249
rfoot -14.522 -3.14161
rtoes -4.40278
lfemur -35.1938 -12.1114 -20.635
ltibia 13.3798
lfoot -2.54969 -4.03257
ltoes -25.331
478
root 3.86977 18.1087 9.06942 -152.274 -3.96408 175.918
lowerback -20.8349 -4.24274 -6.61966
upperback 2.01429 -4.09614 0.496144
thorax 14.6117 -2.4476 2.96529
lowerneck 1.42872 1.44974 -0.30861
upperneck 20.2912 3.27 3.72899
head 5.82357 2.4944 1.44635
rclavicle 9.69075e-015 -9.74045e-015
rhumerus -40.7496 -16.9358 -75.7015
rradius 41.917
rwrist -2.9042
rhand -10.9169 -53.3655
rfingers 7.12502
rthumb 15.1005 -82.7946
lclavicle 9.69075e-015 -9.74045e-015
lhumerus -30.3925 -1.16916 79.0957
lradius 33.0843
lwrist 1.14111
lhand -24.4094 -12.8525
lfingers 7.12502
lthumb 2.08194 17.1171
rfemur -32.4599 7.71509 15.8214
rtibia 10.7033
rfoot -14.639 -3.16714
rtoes -3.81789
lfemur -34.7213 -12.0822 -20.63
ltibia 13.1403
lfoot -2.56566 -4.07277
ltoes -24.9962
479
root 3.865 18.1125 9.02772 -152.559 -3.92627 175.972
lowerback -20.8966 -4.1817 -6.48092
upperback 2.03823 -4.03561 0.423872
thorax 14.6516 -2.40602 2.82124
lowerneck 1.62466 1.49452 -0.255993
upperneck 20.0765 3.30323 3.84964
head 5.72028 2.51684 1.46842
rclavicle -3.32964e-014 6.36111e-015
rhumerus -41.0556 -17.583 -75.5859
rradius 41.6391
rwrist -2.9721
rhand -10.9657 -53.4713
rfingers 7.12502
rthumb 15.0535 -82.904
lclavicle -3.32964e-014 6.36111e-015
lhumerus -30.3025 -1.16947 79.014
lradius 32.7356
lwrist 0.965076
lhand -24.5006 -12.1697
lfingers 7.12502
lthumb 1.9939 17.8008
rfemur -31.9295 7.98161 15.8823
rtibia 10.638
rfoot -14.8412 -3.30523
rtoes -3.89101
lfemur -34.058 -12.0195 -20.7024
ltibia 12.8106
lfoot -2.58012 -4.13377
ltoes -24.916
480
root 3.86426 18.1165 8.99297 -152.854 -3.8204 175.97
lowerback -20.8293 -4.07359 -6.41593
upperback 1.99287 -3.90043 0.290088
thorax 14.5258 -2.33097 2.68298
lowerneck 2.0178 1.3904 0.0569057
upperneck 19.9858 3.19387 3.79167
head 5.63417 2.49122 1.3854
rclavicle 9.44227e-015 -9.93923e-016
rhumerus -41.598 -18.3224 -75.4093
rradius 41.3696
rwrist -2.86641
rhand -11.6482 -54.5243
rfingers 7.12502
rthumb 14.396 -84.005
lclavicle 9.44227e-015 -9.93923e-016
lhumerus -30.1034 -1.31949 78.8882
lradius 32.0202
lwrist 0.778765
lhand -24.4588 -11.9615
lfingers 7.12502
lthumb 2.03428 18.0085
rfemur -31.4598 8.17104 15.908
rtibia 10.6405
rfoot -15.0254 -3.3822
rtoes -4.45554
lfemur -33.3964 -11.9716 -20.8065
ltibia 12.4541
lfoot -2.62345 -4.12759
ltoes -25.9622
481
root 3.86519 18.1212 8.96494 -153.118 -3.64909 175.937
lowerback -20.7404 -3.98742 -6.44339
upperback 1.88954 -3.78112 0.19037
thorax 14.3311 -2.27107 2.63322
lowerneck 2.71053 1.36955 0.34143
upperneck 19.609 3.21969 3.55025
head 5.40887 2.50569 1.24347
rclavicle 7.05686e-015 -3.18055e-015
rhumerus -42.1636 -18.8061 -75.1735
rradius 41.0438
rwrist -2.73773
rhand -12.2694 -55.3567
rfingers 7.12502
rthumb 13.7974 -84.8791
lclavicle 7.05686e-015 -3.18055e-015
lhumerus -30.036 -1.33977 78.7815
lradius 31.37
lwrist 0.651466
lhand -24.1967 -12.3685
lfingers 7.12502
lthumb 2.2874 17.599
rfemur -31.0613 8.27117 15.9102
rtibia 10.6202
rfoot -15.1761 -3.29225
rtoes -4.83311
lfemur -32.7936 -11.915 -20.924
ltibia 12.0841
lfoot -2.65964 -4.04625
ltoes -26.6624
482
root 3.8639 18.1232 8.94085 -153.222 -3.47318 175.853
lowerback -20.8396 -3.98224 -6.55405
upperback 1.80828 -3.74328 0.166424
thorax 14.2949 -2.26099 2.67903
lowerneck 3.38658 1.48867 0.365796
upperneck 18.8981 3.37628 3.3767
head 5.07597 2.54575 1.1632
rclavicle -1.78906e-014 -1.80894e-014
rhumerus -42.4836 -19.0167 -74.9898
rradius 40.6857
rwrist -2.72074
rhand -12.3341 -55.0551
rfingers 7.12502
rthumb 13.735 -84.5817
lclavicle -1.78906e-014 -1.80894e-014
lhumerus -30.0337 -1.04801 78.7365
lradius 31.068
lwrist 0.437569
lhand -24.2509 -12.3618
lfingers 7.12502
lthumb 2.23505 17.6062
rfemur -30.8879 8.45745 15.7724
rtibia 10.6869
rfoot -15.3312 -3.34246
rtoes -4.85609
lfemur -32.4103 -11.8471 -21.0782
ltibia 11.7874
lfoot -2.6342 -3.98498
ltoes -25.9749
483
root 3.86244 18.1184 8.91816 -153.124 -3.38851 175.854
lowerback -21.1757 -3.97695 -6.53503
upperback 1.73379 -3.72627 0.192799
thorax 14.4013 -2.25464 2.69044
lowerneck 2.14999 1.07333 0.0976632
upperneck 20.5664 2.87672 3.66483
head 5.80438 2.37656 1.33908
rclavicle 2.16675e-014 -6.36111e-015
rhumerus -42.6053 -19.2529 -74.8516
rradius 40.2241
rwrist -2.83871
rhand -12.39 -54.7751
rfingers 7.12502
rthumb 13.6812 -84.3055
lclavicle 2.16675e-014 -6.36111e-015
lhumerus -29.9468 -0.895068 78.794
lradius 30.8579
lwrist 0.213732
lhand -24.6574 -12.373
lfingers 7.12502
lthumb 1.84249 17.5987
rfemur -31.0127 8.56351 15.7447
rtibia 10.9223
rfoot -15.5282 -3.38059
rtoes -4.94595
lfemur -32.3398 -11.6936 -21.1141
ltibia 11.6415
lfoot -2.62947 -4.07298
ltoes -24.7143
484
root 3.86201 18.1115 8.89404 -152.98 -3.42073 175.908
lowerback -21.5755 -3.95875 -6.36707
upperback 1.68756 -3.72178 0.194016
thorax 14.5664 -2.24193 2.58065
lowerneck 1.85713 1.00793 -0.0441934
upperneck 20.947 2.79783 3.7892
head 5.97187 2.3541 1.41287
rclavicle -2.127e-014 0
rhumerus -42.632 -19.476 -74.8211
rradius 39.7189
rwrist -2.82423
rhand -12.4985 -54.9616
rfingers 7.12502
rthumb 13.5766 -84.499
lclavicle -2.127e-014 0
lhumerus -29.7278 -0.919787 78.812
lradius 30.6021
lwrist 0.0918939
lhand -24.5609 -12.9623
lfingers 7.12502
lthumb 1.93568 17.0087
rfemur -31.1219 8.48467 15.8618
rtibia 11.057
rfoot -15.6753 -3.29217
rtoes -4.94602
lfemur -32.2808 -11.4827 -21.1143
ltibia 11.4231
lfoot -2.59543 -4.34218
ltoes -23.3946
485
root 3.86128 18.1097 8.87543 -152.966 -3.36806 175.873
lowerback -21.7044 -3.94635 -6.26553
upperback 1.68087 -3.71735 0.134166
thorax 14.6206 -2.23 2.45
lowerneck 2.17168 1.27098 -0.058869
upperneck 20.3623 3.11124 3.7734
head 5.72733 2.4742 1.40347
rclavicle -6.75868e-015 -8.15017e-015
rhumerus -42.5912 -19.5486 -74.9369
rradius 39.2424
rwrist -2.70176
rhand -12.4957 -54.9779
rfingers 7.12502
rthumb 13.5792 -84.515
lclavicle -6.75868e-015 -8.15017e-015
lhumerus -29.3793 -0.787968 78.7197
lradius 30.2675
lwrist -0.128456
lhand -24.2401 -13.238
lfingers 7.12502
lthumb 2.24545 16.7299
rfemur -31.052 8.42522 15.8643
rtibia 11.0486
rfoot -15.7361 -3.20583
rtoes -5.17549
lfemur -32.0392 -11.2695 -21.2476
ltibia 11.0883
lfoot -2.48727 -4.49887
ltoes -23.1442
486
root 3.85738 18.1099 8.8546 -153.045 -3.11354 175.858
lowerback -21.7841 -3.85027 -6.17661
upperback 1.66669 -3.59786 0.0355893
thorax 14.6235 -2.16465 2.32532
lowerneck 0.57518 0.972398 -0.173626
upperneck 22.3352 2.80734 3.94768
head 6.63212 2.41717 1.54215
rclavicle -1.07344e-014 -1.07344e-014
rhumerus -42.6229 -19.7034 -75.0232
rradius 38.759
rwrist -2.795
rhand -12.3092 -55.0212
rfingers 7.12502
rthumb 13.759 -84.5463
lclavicle -1.07344e-014 -1.07344e-014
lhumerus -29.0795 -0.720688 78.6501
lradius 29.9472
lwrist -0.44637
lhand -24.1952 -13.1442
lfingers 7.12502
lthumb 2.28883 16.8233
rfemur -30.908 8.48659 15.832
rtibia 11.0285
rfoot -15.792 -3.04256
rtoes -5.35798
lfemur -31.6824 -10.9508 -21.4335
ltibia 10.7765
lfoot -2.51262 -4.49396
ltoes -24.121
487
root 3.85043 18.1069 8.82651 -153.176 -2.75397 175.916
lowerback -21.9454 -3.70345 -6.07916
upperback 1.6411 -3.41333 -0.0187485
thorax 14.6572 -2.07173 2.26634
lowerneck 2.64617 1.4042 0.181801
upperneck 19.6817 3.288 3.4443
head 5.44077 2.52532 1.24228
rclavicle 1.68967e-014 1.78906e-014
rhumerus -42.7477 -19.8299 -75.0144
rradius 38.3342
rwrist -2.91611
rhand -12.1663 -55.4135
rfingers 7.12502
rthumb 13.8967 -84.9292
lclavicle 1.68967e-014 1.78906e-014
lhumerus -28.9721 -0.706315 78.6915
lradius 29.835
lwrist -0.603238
lhand -24.2966 -13.4287
lfingers 7.12502
lthumb 2.19096 16.5398
rfemur -30.6724 8.5009 15.8986
rtibia 10.9458
rfoot -15.8162 -2.6925
rtoes -5.2632
lfemur -31.1844 -10.5437 -21.5995
ltibia 10.3812
lfoot -2.62502 -4.5005
ltoes -24.8976
488
root 3.84702 18.1027 8.80418 -153.258 -2.49382 175.928
lowerback -22.0892 -3.62138 -6.07556
upperback 1.606 -3.29895 -0.0151629
thorax 14.6876 -2.02071 2.30363
lowerneck 1.85274 1.22963 0.111655
upperneck 20.7937 3.1233 3.51093
head 5.92566 2.49502 1.30872
rclavicle -7.90169e-015 8.15017e-015
rhumerus -42.8667 -19.935 -74.8051
rradius 37.7622
rwrist -2.19338
rhand -11.4192 -54.8208
rfingers 7.12502
rthumb 14.6166 -84.2857
lclavicle -7.90169e-015 8.15017e-015
lhumerus -28.9154 -0.561014 78.7856
lradius 29.8377
lwrist -0.770703
lhand -24.3859 -13.6831
lfingers 7.12502
lthumb 2.10464 16.2863
rfemur -30.482 8.45233 15.9198
rtibia 10.8418
rfoot -15.8531 -2.42276
rtoes -5.41594
lfemur -30.7823 -10.252 -21.7297
ltibia 9.99933
lfoot -2.63269 -4.55168
ltoes -25.0984
489
root 3.84651 18.1005 8.78709 -153.255 -2.42341 175.848
lowerback -22.2668 -3.61148 -6.14304
upperback 1.58479 -3.2595 -0.00473437
thorax 14.767 -2.01049 2.36076
lowerneck 1.02655 1.08546 -0.188937
upperneck 21.834 2.96538 3.78116
head 6.39214 2.46059 1.47849
rclavicle 2.25124e-014 1.03368e-014
rhumerus -42.7539 -19.7643 -74.8858
rradius 37.1919
rwrist -2.28732
rhand -11.7232 -54.8827
rfingers 7.12502
rthumb 14.3238 -84.3686
lclavicle 2.25124e-014 1.03368e-014
lhumerus -28.689 -0.295685 78.8984
lradius 29.7352
lwrist -1.15544
lhand -24.5054 -13.5512
lfingers 7.12502
lthumb 1.98922 16.4192
rfemur -30.3586 8.37548 15.8499
rtibia 10.7424
rfoot -15.9758 -2.37665
rtoes -5.89226
lfemur -30.5534 -10.0621 -21.8971
ltibia 9.72709
lfoot -2.53602 -4.69215
ltoes -24.3381
490
root 3.84353 18.0977 8.76138 -153.329 -2.30999 175.81
lowerback -22.4421 -3.57684 -6.19924
upperback 1.58903 -3.18907 0.0187812
thorax 14.8724 -1.98638 2.43744
lowerneck 1.60842 1.21084 -0.278814
upperneck 21.039 3.07271 3.82505
head 6.03366 2.47369 1.48181
rclavicle -4.82053e-015 1.56046e-014
rhumerus -42.5771 -19.6636 -74.9225
rradius 36.5623
rwrist -2.27288
rhand -12.003 -55.6108
rfingers 7.12502
rthumb 14.0542 -85.1156
lclavicle -4.82053e-015 1.56046e-014
lhumerus -28.4679 0.00335065 79.0365
lradius 29.6628
lwrist -1.50375
lhand -24.5926 -13.527
lfingers 7.12502
lthumb 1.90503 16.4443
rfemur -30.1245 8.31941 15.854
rtibia 10.6448
rfoot -16.0725 -2.28062
rtoes -6.12056
lfemur -30.1087 -9.85833 -22.066
ltibia 9.2651
lfoot -2.43612 -4.77639
ltoes -24.0943
